<svg version="1.1" xmlns="http://www.w3.org/2000/svg" xmlns:xlink="http://www.w3.org/1999/xlink" width="1560" height="804"><defs/><g><path fill="white" stroke="#02063B" paint-order="fill stroke markers" d=" M 68 581.8522870479403 L 69 584.2295751565784 L 70 586.5953850201529 L 71 588.9495676214397 L 72 591.2919746755911 L 73 593.6224586394752 L 74 595.94087272097 L 75 598.247070888209 L 76 600.5409078787798 L 77 602.8222392088732 L 78 605.0909211823848 L 79 607.3468108999655 L 80 609.5897662680229 L 81 611.8196460076708 L 82 614.0363096636286 L 83 616.239617613068 L 84 618.429431074408 L 85 620.6056121160555 L 86 622.7680236650945 L 87 624.9165295159188 L 88 627.0509943388126 L 89 629.1712836884735 L 90 631.2772640124815 L 91 633.3688026597109 L 92 635.4457678886862 L 93 637.5080288758794 L 94 639.555455723951 L 95 641.5879194699318 L 96 643.6052920933456 L 97 645.6074465242735 L 98 647.5942566513573 L 99 649.5655973297434 L 100 651.5213443889647 L 101 653.461374640763 L 102 655.385565886847 L 103 657.2937969265902 L 104 659.185947564665 L 105 661.061898618613 L 106 662.9215319263528 L 107 664.7647303536221 L 108 666.5913778013563 L 109 668.4013592130008 L 110 670.1945605817583 L 111 671.9708689577703 L 112 673.7301724552312 L 113 675.4723602594353 L 114 677.1973226337577 L 115 678.9049509265656 L 116 680.5951375780627 L 117 682.2677761270634 L 118 683.9227612176993 L 119 685.5599886060547 L 120 687.1793551667332 L 121 688.780758899353 L 122 690.3640989349719 L 123 691.9292755424407 L 124 693.476190134685 L 125 695.0047452749152 L 126 696.5148446827639 L 127 698.0063932403493 L 128 699.4792969982688 L 129 700.9334631815138 L 130 702.3688001953158 L 131 703.7852176309142 L 132 705.1826262712518 L 133 706.5609380965942 L 134 707.9200662900737 L 135 709.259925243158 L 136 710.5804305610422 L 137 711.8814990679651 L 138 713.163048812448 L 139 714.4249990724563 L 140 715.6672703604847 L 141 716.8897844285635 L 142 718.0924642731873 L 143 719.2752341401655 L 144 720.4380195293934 L 145 721.5807471995455 L 146 722.7033451726884 L 147 723.8057427388143 L 148 724.8878704602955 L 149 725.9496601762576 L 150 726.991045006873 L 151 728.0119593575737 L 152 729.0123389231823 L 153 729.9921206919632 L 154 730.9512429495917 L 155 731.8896452830398 L 156 732.8072685843835 L 157 733.7040550545242 L 158 734.5799482068307 L 159 735.4348928706958 L 160 736.2688351950126 L 161 737.0817226515654 L 162 737.8735040383397 L 163 738.6441294827457 L 164 739.393550444761 L 165 740.1217197199869 L 166 740.8285914426231 L 167 741.5141210883548 L 168 742.1782654771595 L 169 742.8209827760245 L 170 743.4422325015835 L 171 744.0419755226658 L 172 744.6201740627616 L 173 745.1767917024008 L 174 745.7117933814475 L 175 746.225145401308 L 176 746.7168154270541 L 177 747.1867724894589 L 178 747.6349869869478 L 179 748.0614306874634 L 180 748.4660767302435 L 181 748.8488996275125 L 182 749.2098752660884 L 183 749.5489809088995 L 184 749.8661951964181 L 185 750.1614981480053 L 186 750.4348711631698 L 187 750.6862970227392 L 188 750.9157598899448 L 189 751.123245311419 L 190 751.3087402181061 L 191 751.4722329260846 L 192 751.6137131373041 L 193 751.7331719402335 L 194 751.8306018104224 L 195 751.9059966109746 L 196 751.9593515929358 L 197 751.9906633955914 L 198 751.9999300466789 L 199 751.9871509625121 L 200 751.952326948018 L 201 751.8954601966852 L 202 751.8165542904273 L 203 751.7156141993555 L 204 751.5926462814673 L 205 751.4476582822442 L 206 751.2806593341656 L 207 751.0916599561324 L 208 750.8806720528048 L 209 750.6477089138526 L 210 750.3927852131178 L 211 750.1159170076903 L 212 749.8171217368972 L 213 749.4964182212034 L 214 749.1538266610264 L 215 748.7893686354648 L 216 748.4030671009375 L 217 747.9949463897391 L 218 747.5650322085066 L 219 747.1133516366003 L 220 746.6399331243983 L 221 746.1448064915041 L 222 745.6280029248687 L 223 745.0895549768262 L 224 744.529496563043 L 225 743.9478629603818 L 226 743.3446908046799 L 227 742.7200180884411 L 228 742.0738841584425 L 229 741.4063297132569 L 230 740.7173968006886 L 231 740.0071288151249 L 232 739.2755704948036 L 233 738.5227679189936 L 234 737.7487685050942 L 235 736.9536210056467 L 236 736.137375505265 L 237 735.3000834174799 L 238 734.4417974815009 L 239 733.5625717588947 L 240 732.6624616301795 L 241 731.7415237913369 L 242 730.7998162502408 L 243 729.8373983230034 L 244 728.8543306302391 L 245 727.8506750932465 L 246 726.8264949301072 L 247 725.7818546517051 L 248 724.7168200576616 L 249 723.6314582321922 L 250 722.5258375398807 L 251 721.4000276213725 L 252 720.2540993889886 L 253 719.088125022259 L 254 717.9021779633761 L 255 716.6963329125687 L 256 715.470665823397 L 257 714.2252538979685 L 258 712.9601755820747 L 259 711.6755105602504 L 260 710.3713397507545 L 261 709.0477453004735 L 262 707.704810579746 L 263 706.3426201771126 L 264 704.9612598939881 L 265 703.5608167392554 L 266 702.1413789237865 L 267 700.7030358548861 L 268 699.2458781306593 L 269 697.7699975343057 L 270 696.2754870283377 L 271 694.7624407487253 L 272 693.2309539989672 L 273 691.6811232440862 L 274 690.113046104555 L 275 688.5268213501463 L 276 686.9225488937109 L 277 685.3003297848863 L 278 683.6602662037297 L 279 682.0024614542835 L 280 680.3270199580672 L 281 678.634047247501 L 282 676.9236499592581 L 283 675.195935827548 L 284 673.4510136773308 L 285 671.6889934174619 L 286 669.9099860337697 L 287 668.1141035820642 L 288 666.3014591810803 L 289 664.4721670053507 L 290 662.6263422780156 L 291 660.7641012635647 L 292 658.8855612605139 L 293 656.9908405940174 L 294 655.0800586084135 L 295 653.1533356597088 L 296 651.2107931079961 L 297 649.2525533098105 L 298 647.2787396104233 L 299 645.2894763360712 L 300 643.2848887861263 L 301 641.2651032252039 L 302 639.2302468752084 L 303 637.1804479073211 L 304 635.1158354339257 L 305 633.0365395004769 L 306 630.9426910773085 L 307 628.8344220513839 L 308 626.7118652179889 L 309 624.5751542723679 L 310 622.424423801301 L 311 620.2598092746288 L 312 618.0814470367177 L 313 615.8894742978728 L 314 613.684029125695 L 315 611.4652504363848 L 316 609.2332779859917 L 317 606.9882523616113 L 318 604.7303149725311 L 319 602.4596080413219 L 320 600.1762745948802 L 321 597.8804584554198 L 322 595.5723042314116 L 323 593.2519573084761 L 324 590.9195638402254 L 325 588.5752707390568 L 326 586.2192256669005 L 327 583.8515770259169 L 328 581.4724739491505 L 329 579.082066291136 L 330 576.6805046184586 L 331 574.2679402002709 L 332 571.8445249987648 L 333 569.4104116595989 L 334 566.9657535022849 L 335 564.5107045105291 L 336 562.0454193225341 L 337 559.5700532212586 L 338 557.0847621246357 L 339 554.5897025757523 L 340 552.0850317329895 L 341 549.5709073601223 L 342 547.0474878163834 L 343 544.5149320464878 L 344 541.9733995706221 L 345 539.4230504743953 L 346 536.8640453987568 L 347 534.2965455298771 L 348 531.7207125889954 L 349 529.1367088222327 L 350 526.544696990373 L 351 523.9448403586106 L 352 521.3373026862669 L 353 518.722248216475 L 354 516.0998416658354 L 355 513.4702482140394 L 356 510.8336334934664 L 357 508.19016357874966 L 358 505.5400049763164 L 359 502.88332461389996 L 360 500.2202898300249 L 361 497.55106836346704 L 362 494.875828342688 L 363 492.19473827524496 L 364 489.50796703717697 L 365 486.81568386236745 L 366 484.11805833188487 L 367 481.4152603633012 L 368 478.7074601999889 L 369 475.9948284003977 L 370 473.27753582731185 L 371 470.5557536370873 L 372 467.82965326887177 L 373 465.0994064338051 L 374 462.3651851042042 L 375 459.62716150273087 L 376 456.8855080915436 L 377 454.1403975614349 L 378 451.3920028209535 L 379 448.6404969855136 L 380 445.8860533664903 L 381 443.1288454603034 L 382 440.36904693748926 L 383 437.6068316317614 L 384 434.8423735290613 L 385 432.07584675659933 L 386 429.3074255718867 L 387 426.5372843517601 L 388 423.76559758139695 L 389 420.9925398433257 L 390 418.2182858064291 L 391 415.4430102149421 L 392 412.6668878774452 L 393 409.8900936558537 L 394 407.11280245440327 L 395 404.33518920863327 L 396 401.55742887436793 L 397 398.7796964166964 L 398 396.0021667989518 L 399 393.2250149716908 L 400 390.448415861674 L 401 387.67254436084744 L 402 384.8975753153265 L 403 382.1236835143833 L 404 379.3510436794362 L 405 376.5798304530452 L 406 373.8102183879112 L 407 371.04238193588156 L 408 368.27649543696145 L 409 365.5127331083329 L 410 362.7512690333809 L 411 359.9922771507286 L 412 357.23593124328113 L 413 354.48240492727916 L 414 351.7318716413637 L 415 348.9845046356511 L 416 346.24047696082073 L 417 343.4999614572147 L 418 340.7631307439509 L 419 338.03015720805075 L 420 335.3012129935801 L 421 332.57646999080663 L 422 329.85609982537284 L 423 327.1402738474858 L 424 324.4291631211238 L 425 321.7229384132621 L 426 319.02177018311596 L 427 316.32582857140414 L 428 313.6352833896322 L 429 310.95030410939614 L 430 308.27105985170795 L 431 305.5977193763431 L 432 302.93045107121054 L 433 300.2694229417464 L 434 297.6148026003317 L 435 294.96675725573505 L 436 292.32545370258003 L 437 289.69105831083937 L 438 287.06373701535597 L 439 284.4436553053905 L 440 281.8309782141981 L 441 279.22587030863303 L 442 276.6284956787829 L 443 274.0390179276329 L 444 271.4576001607615 L 445 268.88440497606575 L 446 266.3195944535205 L 447 263.76333014496856 L 448 261.2157730639457 L 449 258.6770836755379 L 450 256.147421886275 L 451 253.6269470340576 L 452 251.11581787812102 L 453 248.6141925890357 L 454 246.12222873874407 L 455 243.64008329063552 L 456 241.1679125896596 L 457 238.70587235247825 L 458 236.25411765765747 L 459 233.81280293589927 L 460 231.38208196031448 L 461 228.9621078367369 L 462 226.55303299407933 L 463 224.15500917473273 L 464 221.76818742500797 L 465 219.39271808562185 L 466 217.02875078222777 L 467 214.67643441599066 L 468 212.33591715420818 L 469 210.00734642097817 L 470 207.6908688879125 L 471 205.38663046489864 L 472 203.09477629090918 L 473 200.81545072485972 L 474 198.54879733651603 L 475 196.29495889745098 L 476 194.0540773720516 L 477 191.8262939085771 L 478 189.61174883026823 L 479 187.41058162650856 L 480 185.22293094403844 L 481 183.0489345782218 L 482 180.88872946436726 L 483 178.74245166910185 L 484 176.61023638180137 L 485 174.4922179060748 L 486 172.38852965130474 L 487 170.29930412424423 L 488 168.22467292067063 L 489 166.16476671709657 L 490 164.11971526253885 L 491 162.0896473703459 L 492 160.07469091008414 L 493 158.0749727994837 L 494 156.09061899644422 L 495 154.12175449110094 L 496 152.16850329795187 L 497 150.23098844804633 L 498 148.30933198123589 L 499 146.40365493848665 L 500 144.51407735425568 L 501 142.64071824893006 L 502 140.78369562133014 L 503 138.94312644127712 L 504 137.11912664222513 L 505 135.31181111395904 L 506 133.52129369535783 L 507 131.74768716722394 L 508 129.9911032451796 L 509 128.25165257263012 L 510 126.52944471379448 L 511 124.82458814680444 L 512 123.13719025687146 L 513 121.46735732952305 L 514 119.8151945439077 L 515 118.18080596617017 L 516 116.56429454289633 L 517 114.96576209462904 L 518 113.38530930945461 L 519 111.82303573666059 L 520 110.27903978046527 L 521 108.75341869382015 L 522 107.24626857228299 L 523 105.75768434796584 L 524 104.28775978355515 L 525 102.836587466406 L 526 101.40425880271016 L 527 99.9908640117385 L 528 98.59649212015847 L 529 97.22123095642644 L 530 95.86516714525544 L 531 94.52838610215906 L 532 93.21097202807113 L 533 91.91300790404227 L 534 90.63457548601298 L 535 89.37575529966392 L 536 88.13662663534404 L 537 86.91726754307604 L 538 85.71775482764014 L 539 84.53816404373646 L 540 83.37856949122602 L 541 82.23904421045057 L 542 81.11965997763195 L 543 80.02048730035136 L 544 78.94159541310779 L 545 77.88305227295751 L 546 76.84492455523332 L 547 75.82727764934492 L 548 74.8301756546602 L 549 73.85368137646765 L 550 72.89785632202052 L 551 71.9627606966626 L 552 71.04845340003584 L 553 70.15499202237083 L 554 69.28243284085863 L 555 68.43083081610655 L 556 67.60023958867612 L 557 66.79071147570437 L 558 66.00229746760857 L 559 65.23504722487434 L 560 64.48900907492765 L 561 63.76423000909085 L 562 63.06075567962279 L 563 62.378630396843334 L 564 61.71789712634211 L 565 61.0785974862726 L 566 60.460771744730096 L 567 59.86445881721602 L 568 59.28969626418626 L 569 58.736520288685426 L 570 58.20496573406638 L 571 57.695066081795915 L 572 57.20685344934532 L 573 56.740358588167794 L 574 56.29561088176115 L 575 55.87263834381736 L 576 55.47146761645757 L 577 55.09212396855452 L 578 54.734631294140456 L 579 54.39901211090233 L 580 54.08528755876341 L 581 53.79347739855166 L 582 53.52360001075522 L 583 53.275672394364335 L 584 53.049710165801116 L 585 52.845727557935334 L 586 52.66373741918841 L 587 52.503751212723785 L 588 52.36577901572508 L 589 52.2498295187612 L 590 52.15591002523922 L 591 52.08402645094378 L 592 52.03418332366522 L 593 52.006383782913815 L 594 52.000629579722215 L 595 52.0169210765352 L 596 52.05525724718683 L 597 52.11563567696493 L 598 52.19805256276334 L 599 52.30250271332159 L 600 52.42897954955146 L 601 52.57747510495187 L 602 52.74798002611044 L 603 52.940483573292454 L 604 53.15497362111779 L 605 53.3914366593242 L 606 53.64985779361865 L 607 53.93022074661525 L 608 54.23250785886074 L 609 54.5567000899465 L 610 54.90277701970825 L 611 55.27071684951193 L 612 55.66049640362701 L 613 56.07209113068609 L 614 56.505475105231596 L 615 56.96062102934832 L 616 57.437500234383265 L 617 57.93608268275136 L 618 58.45633696982719 L 619 58.99823032592349 L 620 59.561728618355005 L 621 60.14679635358834 L 622 60.75339667947787 L 623 61.38149138758695 L 624 62.03104091559425 L 625 62.70200434978619 L 626 63.394339427633554 L 627 64.10800254045392 L 628 64.84294873615806 L 629 65.59913172208178 L 630 66.37650386790153 L 631 67.17501620863459 L 632 67.99461844772327 L 633 68.83525896020308 L 634 69.69688479595436 L 635 70.57944168303743 L 636 71.4828740311113 L 637 72.40712493493493 L 638 73.35213617795176 L 639 74.3178482359566 L 640 75.30420028084478 L 641 76.3111301844437 L 642 77.33857452242626 L 643 78.38646857830548 L 644 79.45474634751139 L 645 80.54334054154799 L 646 81.65218259223195 L 647 82.78120265601115 L 648 83.93032961836445 L 649 85.09949109828102 L 650 86.28861345281905 L 651 87.49762178174461 L 652 88.7264399322496 L 653 89.97499050374819 L 654 91.2431948527522 L 655 92.53097309782476 L 656 93.83824412461178 L 657 95.16492559095116 L 658 96.51093393205946 L 659 97.87618436579527 L 660 99.26059089799975 L 661 100.66406632791285 L 662 102.08652225366615 L 663 103.527869077851 L 664 104.98801601316222 L 665 106.46687108811625 L 666 107.96434115284472 L 667 109.48033188496117 L 668 111.01474779550296 L 669 112.56749223494506 L 670 114.13846739928846 L 671 115.72757433622041 L 672 117.334712951347 L 673 118.95978201449827 L 674 120.60267916610428 L 675 122.26330092364242 L 676 123.94154268815572 L 677 125.6372987508413 L 678 127.35046229970874 L 679 129.08092542630743 L 680 130.8285791325245 L 681 132.59331333744956 L 682 134.37501688430865 L 683 136.17357754746615 L 684 137.98888203949292 L 685 139.82081601830254 L 686 141.66926409435348 L 687 143.53410983791701 L 688 145.41523578641085 L 689 147.31252345179809 L 690 149.22585332805033 L 691 151.15510489867518 L 692 153.10015664430736 L 693 155.06088605036283 L 694 157.03716961475575 L 695 159.02888285567772 L 696 161.03590031943847 L 697 163.05809558836793 L 698 165.09534128877925 L 699 167.1475090989914 L 700 169.21446975741216 L 701 171.2960930706799 L 702 173.39224792186423 L 703 175.5028022787248 L 704 177.62762320202756 L 705 179.7665768539186 L 706 181.91952850635403 L 707 184.08634254958628 L 708 186.26688250070595 L 709 188.46101101223883 L 710 190.668589880796 L 711 192.88948005578044 L 712 195.12354164814477 L 713 197.37063393920255 L 714 199.63061538949188 L 715 201.90334364769083 L 716 204.18867555958374 L 717 206.48646717707805 L 718 208.7965737672715 L 719 211.11884982156855 L 720 213.4531490648453 L 721 215.79932446466356 L 722 218.15722824053165 L 723 220.5267118732131 L 724 222.90762611408127 L 725 225.2998209945205 L 726 227.70314583537206 L 727 230.11744925642515 L 728 232.54257918595215 L 729 234.97838287028713 L 730 237.42470688344758 L 731 239.8813971367983 L 732 242.3482988887571 L 733 244.82525675454178 L 734 247.31211471595725 L 735 249.80871613122298 L 736 252.31490374483948 L 737 254.8305196974934 L 738 257.3554055360007 L 739 259.8894022232877 L 740 262.43235014840764 L 741 264.98408913659546 L 742 267.54445845935516 L 743 270.1132968445854 L 744 272.69044248673686 L 745 275.27573305700423 L 746 277.8690057135507 L 747 280.4700971117652 L 748 283.0788434145513 L 749 285.6950803026465 L 750 288.31864298497277 L 751 290.9493662090162 L 752 293.5870842712359 L 753 296.23163102750124 L 754 298.88283990355706 L 755 301.54054390551585 L 756 304.204575630376 L 757 306.87476727656644 L 758 309.5509506545163 L 759 312.2329571972482 L 760 314.92061797099643 L 761 317.6137636858476 L 762 320.3122247064036 L 763 323.0158310624669 L 764 325.7244124597465 L 765 328.4377982905842 L 766 331.15581764470124 L 767 333.878299319963 L 768 336.60507183316304 L 769 339.3359634308245 L 770 342.0708021000182 L 771 344.8094155791975 L 772 347.551631369049 L 773 350.2972767433567 L 774 353.0461787598834 L 775 355.79816427126275 L 776 358.55305993590594 L 777 361.3106922289196 L 778 364.07088745303645 L 779 366.8334717495554 L 780 369.59827110929314 L 781 372.3651113835443 L 782 375.1338182950505 L 783 377.90421744897833 L 784 380.67613434390336 L 785 383.4493943828021 L 786 386.2238228840494 L 787 388.99924509242106 L 788 391.77548619010156 L 789 394.55237130769524 L 790 397.329725535241 L 791 400.10737393322955 L 792 402.8851415436226 L 793 405.6628534008726 L 794 408.44033454294413 L 795 411.21741002233375 L 796 413.99390491708994 L 797 416.769644341831 L 798 419.5444534587605 L 799 422.31815748868013 L 800 425.0905817219987 L 801 427.8615515297366 L 802 430.6308923745252 L 803 433.39842982160087 L 804 436.1639895497923 L 805 438.92739736249945 L 806 441.6884791986678 L 807 444.4470611437506 L 808 447.20296944066394 L 809 449.95603050073106 L 810 452.70607091461653 L 811 455.4529174632489 L 812 458.19639712873135 L 813 460.93633710523966 L 814 463.6725648099069 L 815 466.40490789369414 L 816 469.1331942522463 L 817 471.85725203673263 L 818 474.5769096646709 L 819 477.29199583073546 L 820 480.00233951754683 L 821 482.70777000644415 L 822 485.4081168882383 L 823 488.1032100739452 L 824 490.7928798055002 L 825 493.4769566664497 L 826 496.15527159262325 L 827 498.827655882782 L 828 501.4939412092449 L 829 504.1539596284915 L 830 506.80754359174034 L 831 509.4545259555021 L 832 512.094739992108 L 833 514.7280194002115 L 834 517.354198315263 L 835 519.9731113199583 L 836 522.584593454656 L 837 525.1884802277698 L 838 527.7846076261285 L 839 530.3728121253072 L 840 532.952930699927 L 841 535.524800833924 L 842 538.0882605307856 L 843 540.6431483237543 L 844 543.1893032859983 L 845 545.7265650407478 L 846 548.2547737713968 L 847 550.7737702315696 L 848 553.2833957551514 L 849 555.7834922662826 L 850 558.2739022893148 L 851 560.7544689587312 L 852 563.2250360290258 L 853 565.685447884546 L 854 568.1355495492941 L 855 570.5751866966887 L 856 573.0042056592857 L 857 575.4224534384576 L 858 577.8297777140301 L 859 580.2260268538769 L 860 582.6110499234701 L 861 584.9846966953878 L 862 587.3468176587764 L 863 589.6972640287679 L 864 592.0358877558515 L 865 594.3625415351991 L 866 596.6770788159434 L 867 598.9793538104097 L 868 601.269221503297 L 869 603.5465376608139 L 870 605.811158839763 L 871 608.0629423965759 L 872 610.3017464962982 L 873 612.527430121523 L 874 614.739853081274 L 875 616.9388760198352 L 876 619.124360425529 L 877 621.2961686394401 L 878 623.4541638640873 L 879 625.5982101720394 L 880 627.7281725144775 L 881 629.8439167297004 L 882 631.9453095515762 L 883 634.0322186179363 L 884 636.1045124789122 L 885 638.1620606052154 L 886 640.2047333963592 L 887 642.232402188822 L 888 644.2449392641515 L 889 646.2422178570093 L 890 648.224112163156 L 891 650.1904973473743 L 892 652.1412495513334 L 893 654.0762459013898 L 894 655.9953645163271 L 895 657.8984845150326 L 896 659.7854860241121 L 897 661.6562501854398 L 898 663.5106591636454 L 899 665.3485961535355 L 900 667.1699453874521 L 901 668.9745921425636 L 902 670.7624227480912 L 903 672.5333245924692 L 904 674.2871861304372 L 905 676.0238968900671 L 906 677.7433474797213 L 907 679.4454295949422 L 908 681.130036025275 L 909 682.7970606610202 L 910 684.4463984999177 L 911 686.0779456537598 L 912 687.6915993549358 L 913 689.2872579629043 L 914 690.8648209705964 L 915 692.4241890107451 L 916 693.965263862145 L 917 695.4879484558394 L 918 696.9921468812332 L 919 698.4777643921357 L 920 699.944707412727 L 921 701.3928835434531 L 922 702.8222015668454 L 923 704.2325714532668 L 924 705.6239043665821 L 925 706.9961126697535 L 926 708.349109930361 L 927 709.6828109260464 L 928 710.9971316498813 L 929 712.2919893156586 L 930 713.5673023631068 L 931 714.8229904630275 L 932 716.0589745223554 L 933 717.2751766891392 L 934 718.4715203574469 L 935 719.6479301721895 L 936 720.8043320338686 L 937 721.940653103243 L 938 723.056821805917 L 939 724.1527678368489 L 940 725.2284221647791 L 941 726.2837170365781 L 942 727.3185859815146 L 943 728.3329638154416 L 944 729.3267866449033 L 945 730.2999918711587 L 946 731.2525181941244 L 947 732.1843056162368 L 948 733.0952954462305 L 949 733.985430302835 L 950 734.8546541183894 L 951 735.702912142374 L 952 736.5301509448584 L 953 737.3363184198678 L 954 738.121363788664 L 955 738.8852376029449 L 956 739.6278917479582 L 957 740.3492794455326 L 958 741.0493552570244 L 959 741.7280750861789 L 960 742.3853961819086 L 961 743.0212771409856 L 962 743.6356779106497 L 963 744.228559791131 L 964 744.799885438088 L 965 745.3496188649594 L 966 745.8777254452307 L 967 746.3841719146155 L 968 746.8689263731515 L 969 747.331958287208 L 970 747.7732384914104 L 971 748.1927391904778 L 972 748.5904339609723 L 973 748.9662977529641 L 974 749.3203068916097 L 975 749.6524390786424 L 976 749.9626733937771 L 977 750.2509902960285 L 978 750.517371624941 L 979 750.7618006017337 L 980 750.9842618303562 L 981 751.1847412984589 L 982 751.3632263782757 L 983 751.5197058274192 L 984 751.6541697895889 L 985 751.7666097951916 L 986 751.8570187618759 L 987 751.9253909949774 L 988 751.9717221878776 L 989 751.9960094222753 L 990 751.9982511683704 L 991 751.9784472849601 L 992 751.9365990194481 L 993 751.8727090077656 L 994 751.7867812742059 L 995 751.6788212311699 L 996 751.5488356788264 L 997 751.3968328046831 L 998 751.2228221830704 L 999 751.0268147745398 L 1000 750.8088229251719 L 1001 750.5688603657998 L 1002 750.3069422111439 L 1003 750.0230849588595 L 1004 749.7173064884985 L 1005 749.3896260603826 L 1006 749.0400643143897 L 1007 748.6686432686552 L 1008 748.2753863181836 L 1009 747.8603182333761 L 1010 747.4234651584695 L 1011 746.9648546098902 L 1012 746.4845154745202 L 1013 745.9824780078782 L 1014 745.4587738322134 L 1015 744.9134359345145 L 1016 744.3464986644308 L 1017 743.7579977321093 L 1018 743.1479702059453 L 1019 742.5164545102473 L 1020 741.8634904228172 L 1021 741.1891190724446 L 1022 740.4933829363156 L 1023 739.7763258373379 L 1024 739.0379929413807 L 1025 738.2784307544289 L 1026 737.4976871196548 L 1027 736.6958112144036 L 1028 735.8728535470971 L 1029 735.0288659540504 L 1030 734.1639015962087 L 1031 733.278014955798 L 1032 732.3712618328932 L 1033 731.4436993419037 L 1034 730.4953859079756 L 1035 729.526381263312 L 1036 728.5367464434107 L 1037 727.5265437832189 L 1038 726.4958369132078 L 1039 725.4446907553636 L 1040 724.3731715190995 L 1041 723.2813466970846 L 1042 722.1692850609925 L 1043 721.0370566571698 L 1044 719.8847328022239 L 1045 718.7123860785312 L 1046 717.5200903296649 L 1047 716.3079206557443 L 1048 715.0759534087036 L 1049 713.8242661874835 L 1050 712.552937833143 L 1051 711.2620484238932 L 1052 709.9516792700537 L 1053 708.6219129089307 L 1054 707.2728330996185 L 1055 705.9045248177239 L 1056 704.5170742500127 L 1057 703.1105687889823 L 1058 701.685097027356 L 1059 700.2407487525036 L 1060 698.777614940785 L 1061 697.2957877518206 L 1062 695.7953605226859 L 1063 694.2764277620327 L 1064 692.7390851441355 L 1065 691.1834295028664 L 1066 689.6095588255945 L 1067 688.0175722470149 L 1068 686.4075700429037 L 1069 684.779653623802 L 1070 683.1339255286289 L 1071 681.4704894182216 L 1072 679.7894500688072 L 1073 678.0909133654025 L 1074 676.3749862951444 L 1075 674.6417769405514 L 1076 672.8913944727155 L 1077 671.1239491444261 L 1078 669.3395522832245 L 1079 667.5383162843926 L 1080 665.7203546038731 L 1081 663.885781751123 L 1082 662.0347132819006 L 1083 660.1672657909876 L 1084 658.2835569048448 L 1085 656.3837052742026 L 1086 654.467830566588 L 1087 652.5360534587868 L 1088 650.5884956292424 L 1089 648.6252797503917 L 1090 646.6465294809379 L 1091 644.652369458062 L 1092 642.6429252895716 L 1093 640.6183235459896 L 1094 638.5786917525816 L 1095 636.5241583813232 L 1096 634.4548528428085 L 1097 632.3709054780978 L 1098 630.2724475505086 L 1099 628.1596112373468 L 1100 626.0325296215821 L 1101 623.8913366834645 L 1102 621.7361672920857 L 1103 619.5671571968832 L 1104 617.384443019092 L 1105 615.1881622431359 L 1106 612.9784532079698 L 1107 610.7554550983655 L 1108 608.5193079361446 L 1109 606.2701525713591 L 1110 604.0081306734194 L 1111 601.7333847221706 L 1112 599.4460579989188 L 1113 597.1462945774052 L 1114 594.8342393147318 L 1115 592.5100378422369 L 1116 590.1738365563219 L 1117 587.8257826092308 L 1118 585.466023899781 L 1119 583.094709064047 L 1120 580.7119874659991 L 1121 578.3180091880943 L 1122 575.9129250218238 L 1123 573.4968864582142 L 1124 571.0700456782865 L 1125 568.6325555434689 L 1126 566.18456958597 L 1127 563.7262419991073 L 1128 561.2577276275949 L 1129 558.7791819577906 L 1130 556.2907611079015 L 1131 553.7926218181515 L 1132 551.284921440907 L 1133 548.7678179307676 L 1134 546.2414698346148 L 1135 543.7060362816271 L 1136 541.1616769732561 L 1137 538.6085521731671 L 1138 536.0468226971451 L 1139 533.4766499029645 L 1140 530.8981956802261 L 1141 528.3116224401602 L 1142 525.717093105396 L 1143 523.1147710996999 L 1144 520.5048203376818 L 1145 517.8874052144704 L 1146 515.2626905953582 L 1147 512.630841805417 L 1148 509.99202461908493 L 1149 507.3464052497238 L 1150 504.6941503391503 L 1151 502.0354269471397 L 1152 499.37040254090243 L 1153 496.6992449845365 L 1154 494.0221225284535 L 1155 491.3392037987812 L 1156 488.65065778674193 L 1157 485.9566538380085 L 1158 483.25736164203715 L 1159 480.5529512213793 L 1160 477.8435929209724 L 1161 475.12945739740996 L 1162 472.41071560819233 L 1163 469.6875388009587 L 1164 466.96009850270036 L 1165 464.22856650895653 L 1166 461.4931148729929 L 1167 458.7539158949669 L 1168 456.0111421110708 L 1169 453.2649662826668 L 1170 450.5155613854046 L 1171 447.76310059832593 L 1172 445.0077572929563 L 1173 442.2497050223847 L 1174 439.48911751033216 L 1175 436.726168640209 L 1176 433.96103244416224 L 1177 431.19388309211394 L 1178 428.4248948807905 L 1179 425.6542422227438 L 1180 422.882099635366 L 1181 420.10864172989636 L 1182 417.3340432004234 L 1183 414.55847881288094 L 1184 411.78212339404 L 1185 409.0051518204972 L 1186 406.2277390076591 L 1187 403.4500598987254 L 1188 400.67228945366867 L 1189 397.89460263821496 L 1190 395.1171744128226 L 1191 392.3401797216616 L 1192 389.56379348159504 L 1193 386.7881905711606 L 1194 384.01354581955604 L 1195 381.24003399562656 L 1196 378.46782979685673 L 1197 375.6971078383667 L 1198 372.92804264191363 L 1199 370.16080862489866 L 1200 367.395580089381 L 1201 364.63253121109886 L 1202 361.8718360284987 L 1203 359.1136684317728 L 1204 356.3582021519061 L 1205 353.6056107497337 L 1206 350.85606760500826 L 1207 348.1097459054794 L 1208 345.3668186359847 L 1209 342.6274585675544 L 1210 339.8918382465281 L 1211 337.1601299836869 L 1212 334.4325058434 L 1213 331.70913763278645 L 1214 328.9901968908937 L 1215 326.27585487789236 L 1216 323.56628256428917 L 1217 320.861650620158 L 1218 318.1621294043894 L 1219 315.46788895396037 L 1220 312.7790989732239 L 1221 310.09592882321965 L 1222 307.41854751100664 L 1223 304.7471236790172 L 1224 302.0818255944352 L 1225 299.42282113859693 L 1226 296.7702777964166 L 1227 294.1243626458369 L 1228 291.48524234730536 L 1229 288.85308313327556 L 1230 286.2280507977396 L 1231 283.6103106857811 L 1232 281.0000276831628 L 1233 278.3973662059406 L 1234 275.8024901901069 L 1235 273.2155630812648 L 1236 270.63674782433304 L 1237 268.06620685328244 L 1238 265.50410208090466 L 1239 262.9505948886132 L 1240 260.405846116279 L 1241 257.8700160520989 L 1242 255.34326442249997 L 1243 252.82575038207813 L 1244 250.31763250357378 L 1245 247.81906876788344 L 1246 245.33021655410894 L 1247 242.8512326296445 L 1248 240.38227314030212 L 1249 237.92349360047646 L 1250 235.47504888334933 L 1251 233.03709321113445 L 1252 230.6097801453634 L 1253 228.1932625772131 L 1254 225.78769271787553 L 1255 223.39322208897025 L 1256 221.01000151300047 L 1257 218.6381811038529 L 1258 216.27791025734265 L 1259 213.92933764180287 L 1260 211.59261118872058 L 1261 209.26787808341868 L 1262 206.95528475578536 L 1263 204.65497687105034 L 1264 202.36709932061015 L 1265 200.0917962129015 L 1266 197.82921086432427 L 1267 195.5794857902143 L 1268 193.34276269586678 L 1269 191.11918246761036 L 1270 188.908885163933 L 1271 186.71201000666036 L 1272 184.52869537218606 L 1273 182.35907878275583 L 1274 180.20329689780544 L 1275 178.06148550535258 L 1276 175.93377951344402 L 1277 173.8203129416579 L 1278 171.72121891266232 L 1279 169.63662964383016 L 1280 167.56667643891078 L 1281 165.5114896797599 L 1282 163.4711988181267 L 1283 161.44593236750035 L 1284 159.4358178950148 L 1285 157.4409820134139 L 1286 155.46155037307628 L 1287 153.4976476541009 L 1288 151.54939755845353 L 1289 149.6169228021754 L 1290 147.70034510765328 L 1291 145.79978519595255 L 1292 143.91536277921296 L 1293 142.0471965531096 L 1294 140.19540418937413 L 1295 138.36010232838487 L 1296 136.54140657181898 L 1297 134.7394314753712 L 1298 132.95429054153823 L 1299 131.18609621246952 L 1300 129.43495986288463 L 1301 127.700991793058 L 1302 125.98430122187153 L 1303 124.28499627993494 L 1304 122.60318400277492 L 1305 120.9389703240933 L 1306 119.29246006909437 L 1307 117.66375694788218 L 1308 116.05296354892812 L 1309 114.46018133260918 L 1310 112.8855106248169 L 1311 111.32905061063843 L 1312 109.79089932810882 L 1313 108.27115366203589 L 1314 106.76990933789756 L 1315 105.28726091581257 L 1316 103.82330178458415 L 1317 102.3781241558176 L 1318 100.95181905811233 L 1319 99.54447633132787 L 1320 98.15618462092533 L 1321 96.78703137238358 L 1322 95.43710282569145 L 1323 94.1064840099155 L 1324 92.79525873784422 L 1325 91.50350960070904 L 1326 90.23131796298202 L 1327 88.97876395725058 L 1328 87.74592647917058 L 1329 86.53288318249645 L 1330 85.33971047419033 L 1331 84.16648350960895 L 1332 83.01327618777026 L 1333 81.88016114669813 L 1334 80.7672097588474 L 1335 79.6744921266083 L 1336 78.60207707789061 L 1337 77.55003216178858 L 1338 76.51842364432594 L 1339 75.50731650428219 L 1340 74.51677442909954 L 1341 73.54685981087147 L 1342 72.59763374241271 L 1343 71.66915601341128 L 1344 70.76148510666224 L 1345 69.87467819438422 L 1346 69.00879113461804 L 1347 68.16387846770868 L 1348 67.33999341286943 L 1349 66.53718786483017 L 1350 65.7555123905683 L 1351 64.99501622612382 L 1352 64.25574727349812 L 1353 63.537752097636485 L 1354 62.841075923495225 L 1355 62.16576263319297 L 1356 61.511854763247186 L 1357 60.87939350189379 L 1358 60.26841868649376 L 1359 59.678968801023416 L 1360 59.11108097365059 L 1361 58.56479097439569 L 1362 58.04013321287914 L 1363 57.53714073615356 L 1364 57.055845226622296 L 1365 56.59627700004398 L 1366 56.15846500362284 L 1367 55.74243681418534 L 1368 55.348218636443505 L 1369 54.975835301343864 L 1370 54.625310264503696 L 1371 54.296665604733676 L 1372 53.98992202264685 L 1373 53.70509883935529 L 1374 53.44221399525236 L 1375 53.201284048883394 L 1376 52.982324175902306 L 1377 52.78534816811583 L 1378 52.61036843261479 L 1379 52.45739599099255 L 1380 52.326440478650966 L 1381 52.21751014419323 L 1382 52.13061184890449 L 1383 52.065751066319535 L 1384 52.02293188187821 L 1385 52.00215699266789 L 1386 52.00342770725376 L 1387 52.02674394559625 L 1388 52.07210423905616 L 1389 52.139505730487144 L 1390 52.22894417441563 L 1391 52.340413937308426 L 1392 52.4739079979272 L 1393 52.629417947771174 L 1394 52.8069339916064 L 1395 53.00644494808296 L 1396 53.22793825043908 L 1397 53.47139994729281 L 1398 53.73681470352079 L 1399 54.02416580122406 L 1400 54.33343514078126 L 1401 54.66460324198857 L 1402 55.01764924528669 L 1403 55.392550913074786 L 1404 55.78928463111134 L 1405 56.20782541000125 L 1406 56.648146886770064 L 1407 57.110221326524595 L 1408 57.59401962419969 L 1409 58.09951130639149 L 1410 58.62666453327711 L 1411 59.175446100620036 L 1412 59.74582144186144 L 1413 60.33775463029764 L 1414 60.951208381343065 L 1415 61.58614405487856 L 1416 62.24252165768547 L 1417 62.92029984596445 L 1418 63.619435927939946 L 1419 64.33988586654868 L 1420 65.0816042822143 L 1421 65.84454445570509 L 1422 66.6286583310769 L 1423 67.43389651870024 L 1424 68.2602082983708 L 1425 69.10754162250481 L 1426 69.97584311941682 L 1427 70.86505809668188 L 1428 71.77513054458035 L 1429 72.70600313962575 L 1430 73.65761724817543 L 1431 74.62991293012414 L 1432 75.622828942679 L 1433 76.6363027442174 L 1434 77.67027049822627 L 1435 78.72466707732303 L 1436 79.79942606735756 L 1437 80.89447977159608 L 1438 82.00975921498451 L 1439 83.1451941484936 L 1440 84.30071305354357 L 1441 85.4762431465087 L 1442 86.67171038330224 L 1443 87.88703946403996 L 1444 89.12215383778329 L 1445 90.37697570736088 L 1446 91.6514260342692 L 1447 92.9454245436508 L 1448 94.25888972935064 L 1449 95.59173885905 L 1450 96.94388797947778 L 1451 98.31525192169812 L 1452 99.7057443064756 L 1453 101.11527754971559 L 1454 102.54376286798112 L 1455 103.99111028408527 L 1456 105.45722863275847 L 1457 106.9420255663909 L 1458 108.44540756084939 L 1459 109.967279921368 L 1460 111.50754678851285 L 1461 113.06611114422003 L 1462 114.64287481790666 L 1463 116.23773849265427 L 1464 117.8506017114646 L 1465 119.4813628835874 L 1466 121.12991929091902 L 1467 122.79616709447265 L 1468 124.48000134091899 L 1469 126.18131596919676 L 1470 127.90000381719346 L 1471 129.63595662849525 L 1472 131.38906505920573 L 1473 133.15921868483326 L 1474 134.94630600724645 L 1475 136.75021446169717 L 1476 138.5708304239106 L 1477 140.4080392172425 L 1478 142.261725119902 L 1479 144.13177137224113 L 1480 146.01806018410892 L 1481 147.92047274227127 L 1482 149.83888921789315 L 1483 151.77318877408874 L 1484 153.723249573531 L 1485 155.68894878612653 L 1486 157.67016259675222 L 1487 159.66676621305413 L 1488 161.67863387330783 L 1489 163.70563885434004 L 1490 165.74765347951046 L 1491 167.8045491267539 L 1492 169.87619623668195 L 1493 171.96246432074358 L 1494 174.06322196944444 L 1495 176.17833686062383 L 1496 178.30767576778973 L 1497 180.45110456851003 L 1498 182.60848825286106 L 1499 184.77969093193119 L 1500 186.96457584638043 L 1501 189.16300537505438 L 1502 191.37484104365296 L 1503 193.59994353345235 L 1504 195.83817269008057 L 1505 198.08938753234534 L 1506 200.3534462611143 L 1507 202.63020626824658 L 1508 204.9195241455753 L 1509 207.22125569394075 L 1510 209.53525593227292 L 1511 211.86137910672375 L 1512 214.19947869984776 L 1513 216.54940743983087 L 1514 218.9110173097667 L 1515 221.28415955697986 L 1516 223.66868470239572 L 1517 226.06444254995546 L 1518 228.47128219607677 L 1519 230.88905203915903 L 1520 233.3175997891321 L 1521 235.756772477049 L 1522 238.20641646472103 L 1523 240.66637745439496 L 1524 243.1365004984721 L 1525 245.61663000926796 L 1526 248.10660976881252 L 1527 250.60628293868993 L 1528 253.1154920699175 L 1529 255.63407911286308 L 1530 258.1618854272002 L 1531 260.6987517919005 L 1532 263.24451841526286 L 1533 265.79902494497793 L 1534 268.36211047822894 L 1535 270.9336135718261 L 1536 273.5133722523759 L 1537 276.1012240264834 L 1538 278.6970058909871 L 1539 281.30055434322645" stroke-linecap="round" stroke-linejoin="round" stroke-miterlimit="10" stroke-width="40"/></g></svg>
